<svg id="Capa_1" data-name="Capa 1" xmlns="http://www.w3.org/2000/svg" viewBox="0 0 373.75 606.62"><defs><style>.cls-1{opacity:0.25;}.cls-2{fill:none;stroke:#fff;stroke-miterlimit:10;stroke-width:0.32px;}</style></defs><title>Franja 1</title><g class="cls-1"><path class="cls-2" d="M297,14.26S140,56,148,154.4,86.78,275.66,73.68,315s10.75,113.51,65.21,139.36c118,56,117.77,133.07,117.77,133.07"/><path class="cls-2" d="M299.57,13.67S147,55.87,155,154.28,82.07,275.86,70.67,318.11C59,361.17,91,429.48,145.43,455.33c118,56,117.77,133.07,117.77,133.07"/><path class="cls-2" d="M302.17,13.08S153.93,55.74,162,154.16s-84.55,121.93-94.31,167C57.53,368,97.51,430.43,152,456.28c118,56,117.77,133.07,117.77,133.07"/><path class="cls-2" d="M304.78,12.5S160.91,55.62,168.93,154,72.78,276.33,64.63,324.29C56.06,374.78,104,431.38,158.5,457.23c118,56,117.77,133.07,117.77,133.07"/><path class="cls-2" d="M307.38,11.91s-139.5,43.59-131.47,142S68.18,276.58,61.62,327.38c-7,54.23,49,105,103.42,130.8,118,56,117.77,133.07,117.77,133.07"/><path class="cls-2" d="M310,11.32S174.86,55.38,182.89,153.8,63.6,276.83,58.6,330.47c-5.4,58,58.52,102.81,113,128.66,118,56,117.77,133.07,117.77,133.07"/><path class="cls-2" d="M312.59,10.73s-130.75,44.53-122.73,143S59,277.09,55.59,333.56c-3.78,61.7,68.07,100.67,122.53,126.52,118,56,117.77,133.07,117.77,133.07"/><path class="cls-2" d="M315.19,10.15s-126.38,45-118.35,143.41S54.51,277.34,52.57,336.65C50.43,402.09,130.19,435.18,184.65,461c118,56,117.77,133.07,117.77,133.07"/><path class="cls-2" d="M317.8,9.56s-122,45.46-114,143.88S50,277.59,49.55,339.73c-.47,69.19,87.18,96.4,141.64,122.25C309.15,518,309,595.05,309,595.05"/><path class="cls-2" d="M320.4,9S202.77,54.9,210.79,153.31,45.47,277.84,46.54,342.82c1.2,72.92,96.73,94.26,151.19,120.11C315.69,518.94,315.5,596,315.5,596"/><path class="cls-2" d="M323,8.38S209.74,54.77,217.77,153.19,41,278.09,43.52,345.91c2.89,76.65,106.29,92.12,160.75,118C322.22,519.89,322,597,322,597"/><path class="cls-2" d="M325.61,7.8S216.72,54.65,224.75,153.07,36.48,278.33,40.51,349c4.58,80.38,115.83,90,170.29,115.83,118,56,117.77,133.07,117.77,133.07"/><path class="cls-2" d="M328.22,7.21S223.7,54.53,231.72,153,32.07,278.56,37.49,352.09c6.38,84.09,125.39,87.84,179.85,113.69,118,56,117.77,133.07,117.77,133.07"/><path class="cls-2" d="M330.82,6.62S230.67,54.41,238.7,152.83,27.52,278.81,34.47,355.18c8,87.82,135,85.7,189.41,111.55,118,56,117.77,133.06,117.77,133.06"/></g></svg>