<svg id="Capa_1" data-name="Capa 1" xmlns="http://www.w3.org/2000/svg" viewBox="0 0 373.75 606.62"><defs><style>.cls-1{opacity:0.25;}.cls-2{fill:none;stroke:#fff;stroke-miterlimit:10;stroke-width:0.32px;}</style></defs><title>Franja 2</title><g class="cls-1"><path class="cls-2" d="M79,14.26S236,56,228,154.4,289.18,275.66,302.28,315s-10.75,113.51-65.21,139.36c-118,56-117.77,133.07-117.77,133.07"/><path class="cls-2" d="M76.39,13.67S229,55.87,221,154.28s72.91,121.58,84.32,163.83c11.62,43.06-20.31,111.37-74.77,137.22-118,56-117.77,133.07-117.77,133.07"/><path class="cls-2" d="M73.79,13.08S222,55.74,214,154.16s84.54,121.93,94.3,167C318.43,368,278.46,430.43,224,456.28c-118,56-117.78,133.07-117.78,133.07"/><path class="cls-2" d="M71.19,12.5S215.06,55.62,207,154s96.15,122.29,104.3,170.25c8.57,50.49-39.41,107.09-93.87,132.94C99.5,513.24,99.69,590.3,99.69,590.3"/><path class="cls-2" d="M68.58,11.91s139.5,43.59,131.47,142S307.79,276.58,314.34,327.38c7,54.23-49,105-103.42,130.8C93,514.19,93.15,591.25,93.15,591.25"/><path class="cls-2" d="M66,11.32S201.1,55.38,193.08,153.8s119.28,123,124.28,176.67c5.4,58-58.52,102.81-113,128.66-118,56-117.77,133.07-117.77,133.07"/><path class="cls-2" d="M63.37,10.73s130.76,44.53,122.73,143S316.92,277.09,320.38,333.56c3.77,61.7-68.07,100.67-122.53,126.52-118,56-117.78,133.07-117.78,133.07"/><path class="cls-2" d="M60.77,10.15s126.38,45,118.35,143.41S321.46,277.34,323.39,336.65c2.14,65.44-77.62,98.53-132.08,124.38C73.35,517,73.54,594.1,73.54,594.1"/><path class="cls-2" d="M58.16,9.56s122,45.46,114,143.88S326,277.59,326.41,339.73c.47,69.19-87.18,96.4-141.64,122.25C66.81,518,67,595.05,67,595.05"/><path class="cls-2" d="M55.56,9S173.2,54.9,165.17,153.31,330.49,277.84,329.42,342.82c-1.19,72.92-96.73,94.26-151.19,120.11C60.27,518.94,60.46,596,60.46,596"/><path class="cls-2" d="M53,8.38S166.22,54.77,158.19,153.19,335,278.09,332.44,345.91c-2.88,76.65-106.28,92.12-160.74,118C53.74,519.89,53.92,597,53.92,597"/><path class="cls-2" d="M50.35,7.8S159.24,54.65,151.22,153.07,339.48,278.33,335.46,349c-4.59,80.38-115.84,90-170.3,115.83C47.2,520.84,47.39,597.9,47.39,597.9"/><path class="cls-2" d="M47.75,7.21S152.26,54.53,144.24,153,343.89,278.56,338.47,352.09c-6.38,84.09-125.39,87.84-179.85,113.69-118,56-117.77,133.07-117.77,133.07"/><path class="cls-2" d="M45.14,6.62s100.15,47.79,92.12,146.21,211.19,126,204.23,202.35c-8,87.82-135,85.7-189.41,111.55-118,56-117.77,133.06-117.77,133.06"/></g></svg>