<svg id="Capa_1" data-name="Capa 1" xmlns="http://www.w3.org/2000/svg" viewBox="0 0 600 600"><defs><style>.cls-1{fill:#cc0083;}.cls-2{fill:#fff;}</style></defs><title>Logo</title><path class="cls-1" d="M57.19,292.23q21.09,0,31,19.4a47.87,47.87,0,0,1,4.41,20.61q-.55,13.25-2.16,13.24c-.06.16-.64.4-1.77.72-1.33,0-2.21-.94-2.64-2.81a63.25,63.25,0,0,0,1-11v-1q0-17.08-11.07-27.26-7.62-6.49-18.84-6.5h-.08q-17.8,0-26.3,13.71a29.12,29.12,0,0,0-3.61,14.68q0,13.31,10.58,32.32,11,21.48,11.95,29.83.24,0,.24,1,7.94-2.81,14.2-4.49A166,166,0,0,1,86.3,380.6q8.9-.8,11.55-.8c1.23,0,2.08.85,2.56,2.56q0,2.65-3.77,2.89a181,181,0,0,0-30,4.25q-11.39,3.13-16,5.53,0,16.44-21.49,22.94a.72.72,0,0,0-.24.08,11.62,11.62,0,0,1-3,.72q-4.5-.72-4.5-4.57v-.32q0-6.74,13.15-16.52,3.95-2.49,10.19-5.85v-.17q0-8.32-16.6-40-6.5-14.19-6.5-25.26,0-18,14.68-28A37.58,37.58,0,0,1,57.19,292.23Zm-30,120.53h.24a31.26,31.26,0,0,0,13.07-6.82,16.08,16.08,0,0,0,4.09-8.1h-.08Q39,400,30.81,407.46C28.67,409.87,27.47,411.63,27.2,412.76Z"/><path class="cls-1" d="M101.21,376.11c2.84-.8,4.33.59,4.5,4.17Q85.49,398.16,89.1,408.91q1.13,2.64,4.74,2.64,11.55-4,14-28.79a3.16,3.16,0,0,1,1.84-2.16,6.66,6.66,0,0,1,2.89.16q5.3.89,10.35,1.76,12.18,2.25,22.65,3.81a128.48,128.48,0,0,0,19,1.57,127.18,127.18,0,0,0,25.38-2.69q13.2-2.68,27.79-6.46a2.53,2.53,0,0,1,2.89,1.13c.59.69.51,1.66-.24,2.88q-1.69,2.17-10.67,3.61-6.66,1.29-17,4.17a111.14,111.14,0,0,1-26.78,3.37h-3.37a125.86,125.86,0,0,1-17.68-1.36q-9.58-1.37-20.33-3.29-5.22-.88-10.67-1.76c-.1.64-.48,2.78-1.12,6.41a7.5,7.5,0,0,0-.24,1.2,44.7,44.7,0,0,1-5.85,14.44,15.31,15.31,0,0,1-13.56,8H91.83q-9.22-1.12-9.22-12.19Q83.09,391.1,101.21,376.11Z"/><path class="cls-1" d="M218.69,377.55c.59-.48,1.61-.48,3.05,0a1.83,1.83,0,0,1,1,2.73,234.19,234.19,0,0,0-8,23.41q12.36-13.38,20-13.39,4.74.65,5.37,6.66v1.36c0,2.3-.15,6.34-.48,12.11q16.92-23.49,27.27-23.82h.16q5.2.88,5.21,6.34,0,1.68-.64,10.1,0,10.67,12.67,10.67h2q26.71,0,85.73-34.16a2,2,0,0,1,2.89.88c.91,1.6,1.06,2.64.48,3.13Q333,409,321.18,412.35q-24.23,8.1-35.53,8.1-20,0-20.12-16.76V401l1-8.58q-1-3.61-25.82,25.34-2,2.08-4,1.36a5.94,5.94,0,0,1-3.29-6L234.73,399c.11-1.28-.1-1.95-.64-2h-.64q-9.87,2.16-24.14,24.78c-1.17,1.39-2.3,1.84-3.37,1.36a3.4,3.4,0,0,1-2-4Q212.93,382.76,218.69,377.55Z"/><path class="cls-1" d="M375.71,376.11q4.25-1.2,4.49,4.17-20.2,17.88-16.6,28.63,1.13,2.64,4.73,2.64,11.55-4,14-28.79a3.17,3.17,0,0,1,1.85-2.16,6.67,6.67,0,0,1,2.89.16l10.34,1.76q12.19,2.25,22.65,3.81a118.58,118.58,0,0,0,44.35-1.12q13.19-2.68,27.79-6.46a2.52,2.52,0,0,1,2.88,1.13c.59.69.51,1.66-.24,2.88q-1.68,2.17-10.66,3.61-6.66,1.29-17,4.17a111.22,111.22,0,0,1-26.79,3.37h-3.37a126,126,0,0,1-17.68-1.36q-9.58-1.37-20.33-3.29-5.21-.88-10.66-1.76c-.11.64-.48,2.78-1.13,6.41a8.79,8.79,0,0,0-.23,1.2,45,45,0,0,1-5.86,14.44,15.3,15.3,0,0,1-13.55,8h-1.28q-9.22-1.12-9.23-12.19Q357.6,391.1,375.71,376.11Z"/><path class="cls-1" d="M496.4,363.84h2q6.66.89,6.66,6.65,0,6.35-6,12.11a67.46,67.46,0,0,1,2.65,14q61.66-10.27,76.34-16.76,2.81-.88,3.37,1.28,1.13,3-.8,3.69-8.19,4.65-78.51,17.56-5.85,15.31-13.31,17.64t-11,1.77q-8.25-1.29-8.26-7.14,0-8.65,21.49-15.4c2.68-.53,4-1.2,4-2v-2q0-5.68-5.37-21.41Q487.65,365,496.4,363.84ZM476.27,414a2.83,2.83,0,0,0,1.84,2c2.25.64,5.05.27,8.42-1.12s6.15-4.86,8.5-10.26h-.72Q476.27,410.2,476.27,414Zm20.13-44.83a7.88,7.88,0,0,0-.73,3.53,23,23,0,0,0,.73,3.77c.16.48.37.48.64,0,1.33-3.48,2-5.69,2-6.66Q498.49,367.29,496.4,369.21Z"/><path class="cls-2" d="M225.62,80.42c.25-2.89.88-9.44,4.43-10.41,4-1.09,6.52,2.63,9.74,3.79a9.48,9.48,0,0,0,4.52.33c.6-.08,5.66-2.21,5.93-2.06,1.21.72.28,9.06,0,10.05-1.48,5.51-7,6.24-11.78,5.28-5.86-1.19-12-3-15.36-8.34-1.27-2-4.89-.75-4,1.7,4.43,12.8,20.46,10.45,31.2,10.35,2.85,0,2.85-4.44,0-4.42-8.08.08-23.51,2.81-26.94-7.1l-4,1.7c4.69,7.54,14.8,10.81,23.33,11.23,11,.55,13.59-11.52,12-20.26-.49-2.71-1.57-4.76-4.56-4.71-3.2.06-4.15,2-7.88,1.18-3.07-.72-4-2.49-6.74-3.45-9.56-3.34-13.65,8-14.25,15.14-.24,2.84,4.18,2.82,4.41,0Z"/><path class="cls-2" d="M243.36,93c-.24,0-.49,0-.74,0a39.91,39.91,0,0,1-9.4-1.6c-6.31-.87-11.92-3.38-14.43-10l-.21-.32.08,0a.49.49,0,0,1,0-.11,2.42,2.42,0,0,1,1.31-3.07,3.1,3.1,0,0,1,1.17-.29c.85-4.55,2.91-9.66,6.58-12a8.69,8.69,0,0,1,7.94-.7,12.18,12.18,0,0,1,3.06,1.67,9.92,9.92,0,0,0,3.63,1.76,6.54,6.54,0,0,0,4.41-.43,9.05,9.05,0,0,1,3.35-.76h.11c3.59,0,4.54,2.91,4.94,5.11.84,4.6.65,11.23-2.34,15.83a3.14,3.14,0,0,1,.13.86,2.6,2.6,0,0,1-2.62,2.74l-1.26,0A11.17,11.17,0,0,1,243.36,93Zm-3.15-1.2c.84.1,1.66.16,2.46.2a11.7,11.7,0,0,0,3.55-.32h-.12C244.2,91.77,242.23,91.83,240.21,91.83Zm-6.88-1.41a75.5,75.5,0,0,0,12.74.31l2.67-.08A9.49,9.49,0,0,0,251,88.76a8.23,8.23,0,0,0,.69-.87,1.5,1.5,0,0,0-1.35-.7h0c-1.12,0-2.39.07-3.74.14a13.16,13.16,0,0,1-8.16.55c-.59-.12-1.18-.24-1.77-.38-4.84-.28-9.43-1.41-12.1-4.74a2.94,2.94,0,0,1-2.85-.19,2.16,2.16,0,0,1-.9-1.36l-.73.31C223,86,228.07,88.83,233.33,90.42Zm18.58-1.24c-.07.08-.13.16-.2.23a10.62,10.62,0,0,1-1.22,1.2A1.57,1.57,0,0,0,251.91,89.18Zm-1.6-3a2.5,2.5,0,0,1,1.92.82c2.57-4.33,2.7-10.4,1.93-14.67-.55-3-1.74-4.31-4-4.31h-.1a8.08,8.08,0,0,0-3,.7,7.46,7.46,0,0,1-5,.47,10.91,10.91,0,0,1-4-1.91,11.11,11.11,0,0,0-2.84-1.55,7.7,7.7,0,0,0-7.07.6c-3.22,2.08-5.27,6.81-6.14,11.32a2.58,2.58,0,0,1,1.46,1.13l.08.14h0l0,0a13.45,13.45,0,0,0,1.41,1.81,2.29,2.29,0,0,0,.08-.41c.22-2.67.82-9.76,4.78-10.85,2.81-.77,4.93.67,7,2.06A14.25,14.25,0,0,0,240,73.34a9.07,9.07,0,0,0,4.28.31c.23,0,1.45-.51,2.43-.88,3.36-1.29,3.52-1.3,3.82-1.12,1.69,1,.36,10.15.24,10.6a7.7,7.7,0,0,1-2.49,4l2-.06Zm-13.57.32a84.21,84.21,0,0,0,9.18-.14l.43,0A6.5,6.5,0,0,0,249.78,82c.37-1.38.92-8.32.28-9.4-.54.14-2,.7-3,1.09a22.49,22.49,0,0,1-2.66.94,10,10,0,0,1-4.75-.35,15.64,15.64,0,0,1-3.27-1.86c-1.95-1.33-3.78-2.59-6.17-1.93-3.3.91-3.88,7.74-4.07,10h0a2.71,2.71,0,0,1-.3,1.07C228.71,84.22,232.65,85.59,236.74,86.52Zm-9.89-2.89a10.25,10.25,0,0,0,1.77,1.09A15.83,15.83,0,0,1,226.85,83.63Zm-5.15-2.81a1.24,1.24,0,0,0,.53.94,1.93,1.93,0,0,0,1.7.18,10.85,10.85,0,0,1-.87-1.7Zm-.77-2.26a2,2,0,0,0-.58.18,1.43,1.43,0,0,0-.8,1.86s0,0,0,.05l1.18-.5C220.79,79.64,220.85,79.11,220.93,78.56Zm1,.1c0,.35-.1.71-.14,1.06l.94-.4h0A1.57,1.57,0,0,0,221.91,78.66Z"/><path class="cls-2" d="M223.24,72c-6.81,1.7-28.23,5.11-26.1,16.15,1.1,5.72,7.24,8.66,11.86,11,6.89,3.43,14.16,7.35,21.42,9.9,6.74,2.37,12.31.72,19.12-.79,5.14-1.14,13.41-1.35,17.1-5.83,7.53-9.15-5.41-17.33-11.54-21.76-2.31-1.67-4.52,2.16-2.23,3.81,4.79,3.47,17.3,9.46,7.29,16.82-1.94,1.43-6.46,1.52-8.7,2-3,.68-6.19,1.6-9.26,2.06-7.35,1.11-10.93-.72-17.11-3.59-5-2.34-18-6-21.25-10.83-6.59-9.8,15-13.27,20.58-14.65,2.76-.69,1.59-5-1.18-4.26Z"/><path class="cls-2" d="M237.42,110.72a21.31,21.31,0,0,1-7.17-1.22,151,151,0,0,1-17.74-8l-3.73-1.87-.28-.14c-4.53-2.25-10.72-5.33-11.85-11.17-2-10.3,15.44-14.22,23.81-16.1l2.66-.62h0a2.64,2.64,0,0,1,3.27,2,2.52,2.52,0,0,1-1.85,3.18c-.59.15-1.35.32-2.25.52-5.5,1.22-16.94,3.75-18.91,8.66-.58,1.45-.29,3,.87,4.73,2.31,3.44,10.13,6.41,15.84,8.57,2.09.79,3.89,1.47,5.2,2.08l.62.29c5.77,2.69,9.25,4.31,16.21,3.26,2-.3,4.13-.82,6.17-1.32,1-.25,2.05-.5,3.06-.73.69-.15,1.57-.26,2.52-.38,2.11-.27,4.73-.61,6-1.54,2.42-1.78,3.63-3.6,3.57-5.4-.1-3.56-5-6.75-8.55-9.08-.86-.56-1.66-1.08-2.31-1.55a2.87,2.87,0,0,1-.58-4.05,2.33,2.33,0,0,1,3.39-.56l1.29.92c4.73,3.37,11.88,8.45,12.67,14.42a9.14,9.14,0,0,1-2.33,7.13c-3,3.63-8.61,4.53-13.58,5.32-1.37.22-2.66.43-3.79.68l-1.78.4A47.24,47.24,0,0,1,237.42,110.72ZM223.36,72.5c-.74.19-1.65.39-2.69.62-8.06,1.82-24.86,5.59-23,15,1,5.36,6.73,8.19,11.31,10.47l.29.14,3.73,1.88a150.56,150.56,0,0,0,17.63,8c6,2.12,11.14,1,17.07-.4l1.79-.4c1.16-.26,2.46-.47,3.84-.69,4.8-.76,10.23-1.63,13-5a8.07,8.07,0,0,0,2.12-6.38c-.74-5.54-7.68-10.48-12.27-13.75-.46-.32-.9-.63-1.3-.93a1.34,1.34,0,0,0-2,.34,1.87,1.87,0,0,0,.35,2.68c.65.47,1.43,1,2.27,1.53,3.75,2.45,8.89,5.8,9,9.88.06,2.13-1.28,4.22-4,6.21-1.47,1.08-4.12,1.42-6.46,1.72-.92.12-1.78.23-2.43.37-1,.23-2,.48-3,.73-2.05.5-4.18,1-6.25,1.33-7.26,1.1-11-.67-16.78-3.34l-.61-.29c-1.28-.59-3.07-1.27-5.13-2-6.16-2.34-13.83-5.24-16.32-8.94-1.33-2-1.66-3.89-1-5.64,2.16-5.4,13.51-7.91,19.61-9.26l2.22-.51a1.54,1.54,0,0,0,1.14-2,1.68,1.68,0,0,0-2.08-1.32Z"/><path class="cls-2" d="M352.84,125.38c2.42-7.56,2.77-17.8-7.1-19.45-9.08-1.52-18.76,7.19-24,13.7-4.37,5.43-9.36,16.94-1.85,22.09s18.58-2.7,24-7.38c2.16-1.86-1-5-3.13-3.13-3.72,3.2-10.62,8.53-16,7.58-9.39-1.63-1.52-14.33,1.59-17.77a40.91,40.91,0,0,1,12.12-9.5c3.74-1.78,9.38-2.65,11.35,2.68,1.17,3.14-.26,7-1.23,10-.86,2.71,3.4,3.88,4.26,1.17Z"/><path class="cls-2" d="M325.49,143.88a10.18,10.18,0,0,1-5.89-1.75,9.08,9.08,0,0,1-4-6.4c-.8-5.42,2.4-12.3,5.7-16.4,6.17-7.66,15.85-15.34,24.47-13.89a9.91,9.91,0,0,1,7.23,4.54c3.1,5.08,1.22,12.57.26,15.55h0a2.73,2.73,0,0,1-3.5,1.74,2.48,2.48,0,0,1-1.7-3.21l.23-.71c.91-2.78,2-6.24,1-9a5.34,5.34,0,0,0-3-3.29c-2-.8-4.85-.47-7.71.88a40.4,40.4,0,0,0-12,9.39c-2.59,2.86-7.06,10.2-5.67,14.23.51,1.48,1.75,2.37,3.79,2.73,3.81.65,9.08-1.85,15.63-7.47a2.7,2.7,0,0,1,2.7-.52,3,3,0,0,1,1.93,2.14,2.33,2.33,0,0,1-.86,2.25C340.56,137.86,332.61,143.88,325.49,143.88Zm18.14-37.63c-7.68,0-16,6.85-21.51,13.69-3.18,4-6.25,10.52-5.5,15.64a8.14,8.14,0,0,0,3.54,5.74c7.66,5.26,19.87-4.3,23.43-7.35a1.38,1.38,0,0,0,.53-1.33,2,2,0,0,0-1.28-1.4,1.71,1.71,0,0,0-1.73.35c-6.79,5.82-12.32,8.4-16.44,7.69-2.4-.42-3.93-1.56-4.56-3.38-1.66-4.82,3.72-12.83,5.87-15.21a41.22,41.22,0,0,1,12.27-9.62c1.49-.7,5.3-2.21,8.5-.9a6.27,6.27,0,0,1,3.52,3.86c1.14,3.06,0,6.7-1,9.62l-.23.71a1.49,1.49,0,0,0,1.06,2,1.72,1.72,0,0,0,2.27-1.1c.91-2.85,2.72-10-.17-14.74a9,9,0,0,0-6.56-4.08A12.32,12.32,0,0,0,343.63,106.25Z"/><path class="cls-2" d="M341.4,134.69c5.21,7.68,17.59,10.2,22.18.32,3.75-8.08-5.29-16.95-13.12-12.07-2.41,1.5-.19,5.33,2.23,3.81,5.2-3.24,9.48,3.76,5.82,8-4,4.59-10.35,2.05-13.3-2.29-1.59-2.33-5.42-.13-3.81,2.23Z"/><path class="cls-2" d="M353.74,142A16,16,0,0,1,341,135a2.33,2.33,0,0,1-.24-2.41,3,3,0,0,1,2.42-1.57,2.66,2.66,0,0,1,2.45,1.2,10.08,10.08,0,0,0,7.32,4.49,6.19,6.19,0,0,0,5.2-2.26,5.12,5.12,0,0,0,.05-6.63,3.8,3.8,0,0,0-5.24-.62,2.48,2.48,0,0,1-3.56-.87,2.65,2.65,0,0,1,.81-3.78,9.18,9.18,0,0,1,11.24,1,10,10,0,0,1,2.58,11.7,11,11,0,0,1-9.27,6.71C354.42,142,354.08,142,353.74,142Zm-10.37-10h-.13a2,2,0,0,0-1.61,1,1.38,1.38,0,0,0,.17,1.43h0A14.76,14.76,0,0,0,354.68,141a10,10,0,0,0,8.45-6.14,9,9,0,0,0-2.34-10.55,8.23,8.23,0,0,0-10.07-.91,1.7,1.7,0,0,0-.5,2.43,1.51,1.51,0,0,0,2.21.56,4.78,4.78,0,0,1,6.51.81,6.14,6.14,0,0,1-.05,7.92,7.13,7.13,0,0,1-6,2.59,11.13,11.13,0,0,1-8.09-4.92A1.66,1.66,0,0,0,343.37,132Z"/><path class="cls-2" d="M334.1,193.25c-3.22,20.18-12.61,38.8-17.66,58.52-6.15,24-5.61,48,2.43,71.46a2.23,2.23,0,0,0,3.69,1c16.16-16.12,42.9-15.21,63.16-23.48a133.4,133.4,0,0,0,51.47-37.07C452.68,245.25,457,225,456.76,201.39c-.34-28.06-1.41-56.13-2.12-84.18a2.24,2.24,0,0,0-3.33-1.91c-27.66,14.54-38.51,56-72.35,59.17-2.8.26-2.83,4.69,0,4.42,35.76-3.36,45.79-44.64,74.58-59.77l-3.32-1.91c.67,26.27,1.4,52.53,2,78.8.29,12.85.5,26-3.32,38.41-4,12.84-12.07,23.82-21.41,33.28a130.6,130.6,0,0,1-57.74,33.84c-17.56,4.85-36.75,6-50.33,19.54l3.7,1c-8.44-24.66-8.17-49.33-1-74.25,5.11-17.85,13.32-35,16.26-53.39.44-2.78-3.82-4-4.26-1.17Z"/><path class="cls-2" d="M321.06,325.34a2.6,2.6,0,0,1-.61-.07,2.89,2.89,0,0,1-2.05-1.88c-7.9-23.08-8.72-47.22-2.44-71.74,2.09-8.16,5-16.26,7.75-24.1,4-11.1,8-22.58,9.9-34.38h0a2.27,2.27,0,0,1,2.75-2,2.89,2.89,0,0,1,2.48,3.3c-1.86,11.66-5.88,23-9.77,33.88-2.27,6.38-4.62,13-6.5,19.56-7,24.53-7.12,47.44-.29,69.91,10.12-8.26,22.8-11.09,35.11-13.84,4-.9,8.22-1.83,12.24-2.95a129.33,129.33,0,0,0,57.52-33.71c10.85-11,17.82-21.8,21.29-33.08,3.88-12.62,3.57-26.23,3.3-38.24-.41-17.69-.89-35.68-1.34-53.07q-.28-10.56-.56-21.11c-9.91,6.39-17.67,16-25.21,25.3-12,14.87-24.47,30.24-45.62,32.23a2.29,2.29,0,0,1-2.18-.92,3,3,0,0,1-.19-2.87,2.71,2.71,0,0,1,2.28-1.61c19.52-1.83,31.61-16.91,43.29-31.49,8.48-10.58,17.25-21.52,28.87-27.62a2.77,2.77,0,0,1,2.72,0,2.73,2.73,0,0,1,1.33,2.28q.35,13.63.77,27.26c.55,18.66,1.12,38,1.35,56.94.32,26.73-5.76,46-19.69,62.58a133.34,133.34,0,0,1-51.65,37.22c-7.21,2.94-15.37,4.75-23.26,6.51-14.45,3.21-29.4,6.54-39.74,16.86A2.62,2.62,0,0,1,321.06,325.34Zm-2.28-3.92c.18.55.36,1.1.55,1.65a1.89,1.89,0,0,0,1.35,1.24,1.59,1.59,0,0,0,1.53-.45q.63-.62,1.26-1.2Zm3.82-2.55c.31,1,.65,2,1,3l.17.5c10.44-9.38,24.78-12.57,38.67-15.66,7.86-1.75,16-3.55,23.11-6.46a132.37,132.37,0,0,0,51.27-36.94c13.77-16.35,19.77-35.46,19.45-61.94-.22-19-.79-38.27-1.35-56.93q-.36-12.57-.71-25.15l-.43.23c-1,.53-2,1.09-3,1.69l.57,21.7c.46,17.39.93,35.37,1.34,53.06.27,12.09.59,25.79-3.34,38.56C445.86,246,438.81,256.94,427.85,268a130.38,130.38,0,0,1-58,34c-4,1.12-8.24,2.06-12.3,3C345.29,307.72,332.59,310.55,322.6,318.87Zm-2.2,2,2,.52c-.2-.6-.39-1.19-.58-1.79C321.32,320,320.85,320.39,320.4,320.83Zm15.51-128.69a1.26,1.26,0,0,0-1.33,1.19h0c-1.89,11.89-6,23.41-9.94,34.55-2.78,7.81-5.65,15.89-7.73,24-6.05,23.64-5.45,46.93,1.78,69.24l.4-.4c.77-.78,1.57-1.51,2.37-2.21-7-22.77-6.95-46,.16-70.86,1.9-6.61,4.25-13.22,6.53-19.62,3.87-10.88,7.88-22.13,9.72-33.7a1.91,1.91,0,0,0-1.67-2.19Zm113.8-75.39c-10.55,6.17-18.77,16.42-26.73,26.36-11.81,14.74-24,30-44,31.85a1.76,1.76,0,0,0-1.48,1,2,2,0,0,0,.1,1.89,1.31,1.31,0,0,0,1.29.51c20.73-2,32.49-16.48,44.95-31.87,7.71-9.53,15.66-19.35,25.95-25.83,0-1.16-.06-2.32-.09-3.48Zm1,1.32,0,2c.58-.35,1.16-.68,1.75-1Zm-.67-1.52,4.13,2.37c0-.57,0-1.13-.05-1.7a1.67,1.67,0,0,0-.84-1.46,1.78,1.78,0,0,0-1.76,0Z"/><path class="cls-2" d="M291.88,217.72c24-24.53,34.52-74.61,77.05-65.56,7.79,1.66,14.95,4.19,23,2.49,6.73-1.43,12.83-5.11,18.38-9.23,13.45-10,25.89-25.64,43.67-25.24,2.83.06,2.83-4.57,0-4.63-15.65-.35-27.3,10.61-38.89,20.26-7.2,6-15.07,12.54-24.33,14.38-11.11,2.2-21.9-4.19-33.12-3.74-37.22,1.53-46.32,45-68.82,68-2,2.08,1.07,5.35,3.1,3.27Z"/><path class="cls-2" d="M290.42,218.88a2.62,2.62,0,0,1-.61-.08,3,3,0,0,1-2.08-2.08,2.61,2.61,0,0,1,.7-2.61c7.27-7.45,13.26-17.24,19.05-26.7C319.63,167.54,332.2,147,357.58,146c5.05-.19,10.07,1,14.92,2.11,5.93,1.4,12.06,2.84,18.13,1.63,9.14-1.81,17.09-8.43,24.11-14.27l2.75-2.3c10.57-8.89,21.49-18.08,35.73-18.08H454a2.68,2.68,0,0,1,2.6,2.92,2.58,2.58,0,0,1-2.55,2.69h-.07c-13.29-.34-23.68,8.61-33.72,17.23-3.15,2.71-6.4,5.5-9.65,7.91-4.35,3.23-11,7.71-18.57,9.32-6.61,1.41-12.55,0-18.84-1.5-1.42-.34-2.86-.68-4.32-1-29.48-6.27-43.67,16.61-57.4,38.74-5.9,9.49-12,19.31-19.2,26.68A2.49,2.49,0,0,1,290.42,218.88Zm68.34-72-1.14,0c-24.86,1-37.28,21.32-49.3,41-5.82,9.51-11.84,19.35-19.19,26.87a1.62,1.62,0,0,0-.46,1.66,2,2,0,0,0,1.38,1.4,1.49,1.49,0,0,0,1.48-.47l.35.34-.35-.34c7.13-7.3,13.2-17.07,19.06-26.52,13.91-22.41,28.32-45.59,58.44-39.18,1.47.31,2.92.66,4.35,1,6.18,1.46,12,2.85,18.41,1.49,7.37-1.57,13.91-6,18.19-9.15,3.22-2.39,6.46-5.17,9.59-7.86,10-8.6,20.35-17.48,33.72-17.48H454a1.61,1.61,0,0,0,1.57-1.73,1.72,1.72,0,0,0-1.64-1.92c-14.23-.35-25.2,8.92-35.81,17.84l-2.76,2.31c-7.1,5.91-15.15,12.62-24.54,14.48-6.28,1.24-12.51-.23-18.55-1.64C367.86,148,363.31,146.92,358.76,146.92Z"/><path class="cls-2" d="M240.41,122.33c21,1.26,22.57,27.32,28,42.55a122.76,122.76,0,0,0,20.23,35.56l.45-3.47a47.7,47.7,0,0,0-15.95,11.53c-1.93,2.09,1.19,5.22,3.13,3.13a45.64,45.64,0,0,1,15-10.84c1.42-.65,1.24-2.48.44-3.47a117.14,117.14,0,0,1-16.73-27.69c-3.82-9-5.63-18.45-8.73-27.66-4.12-12.24-12.08-23.23-25.91-24.06-2.84-.17-2.83,4.25,0,4.42Z"/><path class="cls-2" d="M274.84,212.81a2.81,2.81,0,0,1-2-4.64,47.79,47.79,0,0,1,13.26-10.25A122.61,122.61,0,0,1,268,165.05c-1.13-3.16-2.08-6.74-3.09-10.53-3.83-14.4-8.17-30.72-24.49-31.7h0a2.64,2.64,0,0,1-2.27-1.47,3,3,0,0,1,.12-2.89,2.38,2.38,0,0,1,2.21-1c15.31.92,22.78,13.77,26.34,24.39,1.21,3.59,2.24,7.27,3.23,10.83a136.61,136.61,0,0,0,5.49,16.8A117.44,117.44,0,0,0,292.17,197a3.28,3.28,0,0,1,.64,2.69,2.24,2.24,0,0,1-1.27,1.54A45,45,0,0,0,276.65,212,2.42,2.42,0,0,1,274.84,212.81Zm11.82-14.1a47,47,0,0,0-13.14,10.12,1.72,1.72,0,0,0,.16,2.51,1.5,1.5,0,0,0,2.25-.05,45.84,45.84,0,0,1,12.91-9.84l-.56-.7Q287.46,199.73,286.66,198.71Zm3-2.55-.67,5.19c.68-.35,1.38-.68,2.09-1a1.23,1.23,0,0,0,.73-.87,2.28,2.28,0,0,0-.46-1.84,118.72,118.72,0,0,1-16.81-27.8,137.46,137.46,0,0,1-5.52-16.93c-1-3.54-2-7.21-3.22-10.78-3.47-10.33-10.71-22.83-25.47-23.72a1.34,1.34,0,0,0-1.32.6,2,2,0,0,0-.07,1.91,1.65,1.65,0,0,0,1.45.93h0c17,1,21.47,17.71,25.38,32.43,1,3.77,1.95,7.33,3.07,10.45A121.34,121.34,0,0,0,287,197.46c.63-.32,1.29-.63,1.95-.93Zm-2.15,2.09c.25.33.5.66.76,1l.19-1.44Z"/><path class="cls-2" d="M241.71,119c-12.38-2.73-25.05-2.42-37,1.94-6,2.2-11.55,5.59-17.48,8.07-10.49,4.38-19.65,3.1-29.33-2.48-24-13.82-37-40.18-48.37-64.24-1-2.09-4-.92-4.11,1.12-.45,13.29,4.5,26.39,9.13,38.67A258.35,258.35,0,0,0,131,137.51a262.38,262.38,0,0,0,50,63.27c2.08,1.93,5.21-1.19,3.13-3.13a258.35,258.35,0,0,1-47.7-59.57,251,251,0,0,1-16.52-34.2c-5-12.67-10.59-26.73-10.12-40.5l-4.12,1.11c11.34,24,24.31,49.57,47.43,64.29,11.32,7.2,22.93,9.62,35.53,4.42,6.89-2.84,13.17-6.88,20.34-9.09a61.42,61.42,0,0,1,31.56-.88c2.77.61,4-3.65,1.17-4.26Z"/><path class="cls-2" d="M182.49,201.88a2.64,2.64,0,0,1-1.81-.75,262.38,262.38,0,0,1-50.07-63.38,256.72,256.72,0,0,1-16.56-35.52l-.06-.16c-4.69-12.47-9.55-25.37-9.1-38.71a2.9,2.9,0,0,1,2.35-2.64,2.34,2.34,0,0,1,2.7,1.33c.11.23.22.46.32.69h0v.1c12.73,26.92,25.22,50.22,47.8,63.24,10.09,5.83,19,6.58,28.89,2.45,2.56-1.07,5.09-2.33,7.54-3.56a94.51,94.51,0,0,1,10-4.51c11.58-4.21,24.13-4.87,37.32-2h0a2.44,2.44,0,0,1,1.9,3,2.75,2.75,0,0,1-3.29,2.18,60.93,60.93,0,0,0-31.3.87,82.71,82.71,0,0,0-12.27,5.3c-2.59,1.3-5.28,2.64-8,3.77-11.82,4.89-23.59,3.43-36-4.46-18.61-11.84-30.57-30.36-41-50.87,1.9,8.49,5.18,16.86,8.2,24.58l.31.8a250.57,250.57,0,0,0,16.49,34.13,258.08,258.08,0,0,0,47.6,59.46,2.4,2.4,0,0,1,.78,2.37,3,3,0,0,1-2,2.1A2.63,2.63,0,0,1,182.49,201.88ZM105.85,66c.21,12.23,4.71,24.16,9.06,35.73l.06.15a258.86,258.86,0,0,0,16.49,35.39,261.8,261.8,0,0,0,49.89,63.15,1.6,1.6,0,0,0,1.62.4,2,2,0,0,0,1.33-1.38,1.45,1.45,0,0,0-.5-1.43A259.1,259.1,0,0,1,136,138.32a251.28,251.28,0,0,1-16.55-34.26l-.32-.8c-3.45-8.83-7.24-18.49-9-28.26Q108,70.55,105.85,66Zm5.3,8.7C121.89,96.34,134,116,153.38,128.36c12.1,7.7,23.57,9.14,35.08,4.39,2.71-1.12,5.38-2.46,8-3.75a82.42,82.42,0,0,1,12.42-5.35,61.76,61.76,0,0,1,31.8-.9,1.74,1.74,0,0,0,2.12-1.43,1.46,1.46,0,0,0-1.15-1.87h0c-13-2.87-25.37-2.22-36.77,1.92a93.38,93.38,0,0,0-9.86,4.47c-2.46,1.23-5,2.51-7.6,3.59-10.2,4.26-19.38,3.49-29.76-2.51-22.33-12.87-34.83-35.58-47.36-61.9A56.77,56.77,0,0,0,111.15,74.7Zm-4.78-9.89q1.66,3.51,3.35,7a54.93,54.93,0,0,1-.43-7.78Zm1.42-3.16a1.61,1.61,0,0,0-.35,0,1.92,1.92,0,0,0-1.57,1.7c0,.18,0,.36,0,.54L109.3,63c-.08-.18-.17-.35-.25-.53A1.32,1.32,0,0,0,107.79,61.65Z"/><path class="cls-2" d="M95.91,64C85.69,65.63,74.78,71.5,75.1,84.38c.06,2.36,2.62,2.55,3.74.86q3.84-5.53,9.53-6.32L85.81,77c.94,8.7-7.51,12.53-11.34,18.29a22.71,22.71,0,0,0-3.62,10.48c-.88,8.7,2.94,16.73,6.3,24.09.88,1.92,3.89.78,3.73-1.35-.72-9.59,7.83-10.29,13-15a20.49,20.49,0,0,0,6.07-10c1-4.08.19-8-.44-11.93a59.23,59.23,0,0,1,.68-24.28,2,2,0,1,0-3.88-.89,59.17,59.17,0,0,0-1.79,18.42c.59,8.12,4.47,16.48-1.58,23.79-6.32,7.64-17,7.44-16,20.21l3.73-1.36c-2.55-5.57-5.51-11.53-5.82-18-.39-8.14,3.91-12.69,8.75-18,4.11-4.5,7-8.31,6.29-14.73a2,2,0,0,0-2.56-1.94,18.37,18.37,0,0,0-11.9,8.49l3.74.85C78.85,73.68,88.41,69.6,96,68.41c2.54-.4,2.49-4.79-.09-4.39Z"/><path class="cls-2" d="M78.66,131.31a2.09,2.09,0,0,1-2-1.27l-.27-.58h0l0-.07c-3.24-7.09-6.91-15.12-6-23.69A23.1,23.1,0,0,1,74.06,95a33.24,33.24,0,0,1,4.62-5.14c2.83-2.77,5.74-5.6,6.51-9.52a14.52,14.52,0,0,0-5.94,5.19,2.8,2.8,0,0,1-3,1.23,2.32,2.32,0,0,1-1.62-2.36c0-.27,0-.55,0-.82h0l0-.07c.22-15.44,16.25-19.17,21.24-20a2.06,2.06,0,0,1,2,.7,2.46,2.46,0,0,1,2.83,3.14A58.12,58.12,0,0,0,100,91.45l.17,1c.58,3.57,1.18,7.27.25,11.07a20.94,20.94,0,0,1-6.21,10.25A28.74,28.74,0,0,1,89,117.38c-4.15,2.39-8.07,4.64-7.58,11.07a2.71,2.71,0,0,1-2.07,2.78A2.87,2.87,0,0,1,78.66,131.31Zm-1.3-2.19.24.52a1.21,1.21,0,0,0,1.46.64,1.73,1.73,0,0,0,1.33-1.76l0-.49Zm.61-6.29a14.11,14.11,0,0,0-.65,5.26l2.61-1-.39-.83C79,125.16,78.48,124,78,122.83Zm8.3-42.92c-.62,4.51-3.81,7.62-6.91,10.64a32.62,32.62,0,0,0-4.48,5,22.18,22.18,0,0,0-3.54,10.26c-.76,7.5,2,14.39,5,21a13.54,13.54,0,0,1,1.1-5.28,35.74,35.74,0,0,1-3.13-12.12c-.39-8.21,3.79-12.78,8.64-18.08l.24-.27c3.36-3.66,6-7,6.24-11.81l-1,.14A12,12,0,0,0,86.27,79.91ZM78.5,121.58c.62,1.45,1.28,2.89,1.93,4.31.61-5.09,4.37-7.26,8-9.36a27.92,27.92,0,0,0,5.07-3.44,20,20,0,0,0,5.92-9.75c.87-3.61.32-7-.27-10.68L99,91.6c-1.45-9.15-1.25-16.47.69-24.46a1.49,1.49,0,0,0-1.42-2l.06.29a3,3,0,0,1-2.11,3.41A55.82,55.82,0,0,0,95,84.75c.15,2,.5,4.06.85,6.06,1,6.1,2.14,12.41-2.55,18.08a29.61,29.61,0,0,1-7.5,6C82.77,116.83,80,118.58,78.5,121.58Zm9.37-47.4a2.34,2.34,0,0,1,1.35.41,2.81,2.81,0,0,1,1.09,2C91,83.35,88,87.29,83.9,91.75l-.25.27c-4.7,5.13-8.75,9.56-8.38,17.36a33.38,33.38,0,0,0,2.75,11c1.68-2.8,4.41-4.54,7.24-6.32a29.19,29.19,0,0,0,7.27-5.83C96.92,103,95.92,97.13,94.86,91c-.35-2-.71-4.1-.86-6.15a56.66,56.66,0,0,1,1.18-15.77c-3.79.7-10,2.54-13.36,7.25a21.81,21.81,0,0,1,5.32-2A2.67,2.67,0,0,1,87.87,74.18ZM75.58,83.79c0,.19,0,.39,0,.58a1.38,1.38,0,0,0,.91,1.44A1.79,1.79,0,0,0,78.43,85l.32-.45Zm.59-.87,2.44.56a14.83,14.83,0,0,1,.6-4.09A21,21,0,0,0,76.17,82.92Zm4.58-4.78a13,13,0,0,0-1.16,5.31,14.49,14.49,0,0,1,5.77-4.25,11.34,11.34,0,0,0,0-2.17L85.2,75.9l4.22,3.2a15.92,15.92,0,0,0-.09-2.36,1.75,1.75,0,0,0-.68-1.34,1.5,1.5,0,0,0-1.27-.17A19.22,19.22,0,0,0,80.75,78.14ZM96,64.51c-4.61.72-19.06,4.06-20.32,17.42A19.9,19.9,0,0,1,80,77.5C83.11,71,91.07,68.76,95.4,68c.12-.58.26-1.17.4-1.76a2.76,2.76,0,0,1,1-1.6,1.09,1.09,0,0,0-.83-.14ZM86.37,78c0,.28,0,.56,0,.83.27-.08.54-.15.82-.21Zm11-12.53a1.75,1.75,0,0,0-.58,1l-.3,1.25a2.09,2.09,0,0,0,.9-2.12S97.35,65.54,97.34,65.49Z"/><path class="cls-2" d="M189.54,199.78c15.37,53,2.57,110.31-10.37,162.43-.49,2,2.23,4,3.69,2.15A232.52,232.52,0,0,0,233.9,221c0-2.84-4.4-2.84-4.42,0a227.71,227.71,0,0,1-49.74,140.22l3.69,2.15c13.12-52.86,26-111,10.37-164.78-.79-2.73-5.06-1.57-4.26,1.17Z"/><path class="cls-2" d="M181.45,365.57a2.63,2.63,0,0,1-1.13-.27,2.94,2.94,0,0,1-1.63-3.2c13.95-56.21,25.25-110.9,10.38-162.18h0a2.55,2.55,0,0,1,1.83-3.24,2.62,2.62,0,0,1,3.37,1.79c14.09,48.59,5.35,99.76-7.25,152.29A228.27,228.27,0,0,0,229,221a2.51,2.51,0,0,1,1.28-2.25,3,3,0,0,1,2.9,0,2.46,2.46,0,0,1,1.22,2.24,234.25,234.25,0,0,1-50.6,143l0,.15-.06,0-.44.56A2.3,2.3,0,0,1,181.45,365.57Zm-1.68-3.74-.12.5a2,2,0,0,0,1.1,2.09,1.35,1.35,0,0,0,1.73-.36l.36-.45Zm.71-.73,2.63,1.53q.9-3.64,1.79-7.28C183.46,357.29,182,359.2,180.48,361.1Zm5.93-7.81c-.67,2.79-1.36,5.58-2,8.38a233.28,233.28,0,0,0,49-140.65,1.5,1.5,0,0,0-.74-1.39,2,2,0,0,0-1.92,0A1.55,1.55,0,0,0,230,221,229.19,229.19,0,0,1,186.41,353.29ZM190,199.65c14.71,50.72,4,104.67-9.73,160.11q2.68-3.39,5.22-6.89c12.87-53.22,22.06-105,7.83-154.12a1.65,1.65,0,0,0-2.16-1.12,1.56,1.56,0,0,0-1.16,2Z"/><path class="cls-2" d="M183,329.73q-13.55,4.93-27.34,8.68l1.22,3.45c10.79-9.4,21.55-18.47,29.83-31.16,1.23-1.9-1-4.59-2.24-2.67-8.11,12.43-18.61,21.35-29.18,30.57-1.42,1.23-.62,3.94,1.22,3.45q13.8-3.75,27.33-8.68c1.94-.71,1.11-4.35-.84-3.64Z"/><path class="cls-2" d="M156.67,342.7l-.06-.17a1.91,1.91,0,0,1-2.22-1,2.75,2.75,0,0,1,.58-3.3l.09-.08,0-.08.17,0,1-.89c10.33-9,20.09-17.49,27.85-29.38a1.6,1.6,0,0,1,2.33-.6,2.85,2.85,0,0,1,.73,3.8c-6.2,9.51-13.92,17.11-21.81,24.16,5.89-1.79,11.75-3.74,17.52-5.85h0a1.83,1.83,0,0,1,2.42,1.29,2.46,2.46,0,0,1-1.24,3.27c-8.89,3.24-18,6.13-27,8.6Zm-1.25-3.53a1.83,1.83,0,0,0-.16,1.9.92.92,0,0,0,1,.53Zm.89-.43.81,2.27,1.09-.95,3.13-2.73Q158.83,338.05,156.31,338.74Zm7.27-2.07-4.72,4.13-.16.14c8.37-2.34,16.77-5,25-8,.84-.31.89-1.38.66-2-.11-.3-.45-1-1.17-.7C176.72,332.55,170.16,334.72,163.58,336.67Zm21.92-28.81c-.22,0-.42.15-.61.44-7.7,11.8-17.31,20.25-27.51,29.13,1.91-.53,3.81-1.07,5.71-1.64,8.6-7.59,16.63-15.26,23.22-25.36a1.85,1.85,0,0,0-.44-2.44A.64.64,0,0,0,185.5,307.86Z"/><path class="cls-2" d="M233.12,273.06,242.37,263a2.28,2.28,0,0,0,.34-2.68A58.27,58.27,0,0,1,237,245.52c-.65-2.77-4.92-1.59-4.26,1.18a62.32,62.32,0,0,0,6.14,15.86l.34-2.67L230,269.94c-1.92,2.09,1.2,5.22,3.12,3.12Z"/><path class="cls-2" d="M231.67,274.25a2.82,2.82,0,0,1-2-4.65l7.88-8.57a62.46,62.46,0,0,1-5.24-14.22,2.59,2.59,0,0,1,.73-2.55,3,3,0,0,1,2.82-.7,2.41,2.41,0,0,1,1.67,1.85,57.81,57.81,0,0,0,5.64,14.69,2.76,2.76,0,0,1-.41,3.24l-9.24,10.05A2.44,2.44,0,0,1,231.67,274.25ZM238,262l-7.65,8.32a1.7,1.7,0,0,0,.17,2.51,1.48,1.48,0,0,0,2.23,0L242,262.68a1.79,1.79,0,0,0,.28-2.11,58.37,58.37,0,0,1-5.74-14.94,1.43,1.43,0,0,0-1-1.13,2,2,0,0,0-1.86.47,1.59,1.59,0,0,0-.45,1.61,61.45,61.45,0,0,0,5,13.68l1.7-1.84-.74,5.7-.72-1.32C238.31,262.52,238.16,262.24,238,262Z"/><path class="cls-2" d="M288.07,218.73a46.34,46.34,0,0,0,37.06-22.93c1.44-2.46-2.38-4.68-3.82-2.23a41.75,41.75,0,0,1-33.24,20.74c-2.82.21-2.84,4.63,0,4.42Z"/><path class="cls-2" d="M287.88,219.23a2.28,2.28,0,0,1-2-1,3,3,0,0,1-.15-2.88,2.68,2.68,0,0,1,2.27-1.53,41.07,41.07,0,0,0,32.86-20.5,2.53,2.53,0,0,1,2.2-1.31h0a3,3,0,0,1,2.5,1.47,2.48,2.48,0,0,1-.06,2.57,46.72,46.72,0,0,1-37.45,23.17h-.22ZM323.09,193a1.51,1.51,0,0,0-1.35.83,42.08,42.08,0,0,1-33.64,21,1.7,1.7,0,0,0-1.46,1,2,2,0,0,0,.08,1.9,1.33,1.33,0,0,0,1.31.56h0a45.73,45.73,0,0,0,36.67-22.69,1.49,1.49,0,0,0,.06-1.58,2,2,0,0,0-1.66-1Z"/><path class="cls-2" d="M366.34,312.48a128.2,128.2,0,0,0,27.39,35c1.58,1.42,4.34.06,3.69-2.15l-13.1-45c-.79-2.73-5.06-1.57-4.26,1.17l13.1,45,3.69-2.14a124.85,124.85,0,0,1-26.69-34.1c-1.34-2.51-5.16-.28-3.82,2.23Z"/><path class="cls-2" d="M395.27,348.54a2.78,2.78,0,0,1-1.87-.71,129.23,129.23,0,0,1-27.49-35.12A2.7,2.7,0,0,1,367.1,309a2.47,2.47,0,0,1,3.49,1,125.1,125.1,0,0,0,19.23,26.77l-10.23-35.19a2.54,2.54,0,0,1,1.82-3.23,2.62,2.62,0,0,1,3.38,1.78l12.89,44.29h0l.21.75a2.5,2.5,0,0,1-1.09,2.92A2.88,2.88,0,0,1,395.27,348.54Zm-1.59-1.78.38.35a1.87,1.87,0,0,0,2.21.16,1.54,1.54,0,0,0,.68-1.81l-.15-.52Zm-1.81-6.46,1.59,5.45,2.57-1.49C394.61,343,393.22,341.64,391.87,340.3Zm-23.44-30.67a2,2,0,0,0-.87.23,1.71,1.71,0,0,0-.78,2.38h0a128.34,128.34,0,0,0,25.6,33.33l-2-6.75a125.87,125.87,0,0,1-20.7-28.34A1.43,1.43,0,0,0,368.43,309.63Zm22.86,28.68q2.43,2.49,5,4.85l-12.43-42.74a1.66,1.66,0,0,0-2.16-1.12,1.56,1.56,0,0,0-1.16,2Z"/><path class="cls-2" d="M358.53,313.21a79.62,79.62,0,0,0-18.26,25.43c-.63,1.37.11,3.67,1.76,3.45a57.35,57.35,0,0,0,29.66-13.18c2.08-1.75,0-5.74-2.07-4A53.71,53.71,0,0,1,342,337.5L343.8,341a76.41,76.41,0,0,1,17.62-24.49c2-1.88-.88-5.12-2.89-3.25Z"/><path class="cls-2" d="M341.81,342.6a2,2,0,0,1-1.64-.88,3.43,3.43,0,0,1-.35-3.29,80.58,80.58,0,0,1,18.37-25.58h0a2.49,2.49,0,0,1,3.63.21,2.57,2.57,0,0,1-.07,3.76,74.4,74.4,0,0,0-15,19.31,54.32,54.32,0,0,0,22.54-11.56,2,2,0,0,1,2-.45,2.88,2.88,0,0,1,1.67,2.25,3,3,0,0,1-1,2.91,58,58,0,0,1-29.9,13.3Zm-.4-5.24c-.23.49-.47,1-.69,1.48a2.45,2.45,0,0,0,.24,2.3,1,1,0,0,0,1,.46c.5-.06,1-.14,1.5-.22Zm4.74-.09c-.66,1.27-1.29,2.56-1.9,3.89l-.05.1a57,57,0,0,0,27.17-12.73,2.08,2.08,0,0,0,.66-2,2,2,0,0,0-1-1.5,1,1,0,0,0-1.06.28A55.1,55.1,0,0,1,346.15,337.27Zm-3.37.62,1,1.95c.37-.79.75-1.56,1.14-2.32C344.21,337.66,343.5,337.78,342.78,337.89Zm16.08-24.32a79,79,0,0,0-17.3,23.5L342,337c1.19-.16,2.36-.36,3.53-.6a75.76,75.76,0,0,1,15.58-20.31,1.61,1.61,0,0,0,0-2.37,1.51,1.51,0,0,0-2.24-.16Z"/><path class="cls-2" d="M254.37,210.33l5.74,29.36c2.25,11.48,7.24,24.77-1,34.85-5.74,7-13.62,12.59-20.51,18.46L215,313.13c-1.9,1.62.59,4.86,2.67,3.47l3.43-2.27c2.36-1.56.15-5.39-2.23-3.82l-3.43,2.28,2.68,3.47,27.83-23.69c7.27-6.19,16.64-12.39,20.65-21.42,3.38-7.63,1.1-15.65-.43-23.46l-7.53-38.54c-.55-2.79-4.81-1.61-4.26,1.18Z"/><path class="cls-2" d="M216.61,317.43a2.82,2.82,0,0,1-2.19-1.17,2.49,2.49,0,0,1,.25-3.5l.07-.06,0,0,.23-.15,23.37-19.89c1.78-1.52,3.65-3,5.47-4.51,5.28-4.27,10.75-8.7,15-13.89,6.75-8.3,4.37-18.76,2.07-28.88-.44-1.93-.86-3.75-1.21-5.57l-5.74-29.36a2.67,2.67,0,0,1,.87-2.6,3,3,0,0,1,2.82-.62,2.35,2.35,0,0,1,1.53,1.86l7.54,38.53c.17.88.35,1.76.53,2.63,1.44,7,2.92,14.21-.15,21.12-3.29,7.43-10,12.83-16.45,18.06-1.49,1.19-2.94,2.37-4.33,3.54l-23.74,20.22a2.65,2.65,0,0,1-1.15,1.58L218,317v0l-.1.06A2.36,2.36,0,0,1,216.61,317.43Zm-1.27-4,0,0a1.52,1.52,0,0,0-.11,2.16,1.58,1.58,0,0,0,2.19.52l0,0Zm.81-.56,2,2.64,3.42-2.91v-.25a2,2,0,0,0-1-1.62,1.4,1.4,0,0,0-1.45.15Zm3.86-3.26a2.31,2.31,0,0,1,1,.24,3,3,0,0,1,1.49,2l23.1-19.66c1.39-1.18,2.85-2.37,4.34-3.57,6.38-5.15,13-10.48,16.18-17.68,2.94-6.63,1.48-13.7.08-20.53-.18-.88-.37-1.76-.54-2.64l-7.53-38.53a1.39,1.39,0,0,0-.89-1.12,2,2,0,0,0-1.85.43,1.68,1.68,0,0,0-.56,1.67l5.74,29.36c.35,1.81.77,3.62,1.2,5.54,2.25,9.87,4.8,21.05-2.26,29.71-4.29,5.28-9.8,9.74-15.12,14.05-1.81,1.46-3.69,3-5.45,4.48l-19.13,16.29Z"/><path class="cls-1" d="M295,127.14c-4.22-3.83-9.62-7.54-12.76-12.39-.47-.73-1.79-2.47-1.7-3.3a3.47,3.47,0,0,1,5.12-2.8c3.52,1.72,5,5,6.24,8.49a1.5,1.5,0,0,0,2.7.35c1.58-3,3.5-5.51,6.66-6.83,4.06-1.7,4.75.64,3,4-2.48,4.87-8,10-12.28,13.32-1.49,1.16.6,3.23,2.09,2.08,4.31-3.34,9.31-8.09,12.17-12.78,1.3-2.13,3-5.92,1.88-8.47-1.2-2.72-4.28-2.22-6.62-1.46-4.67,1.53-7.22,4.4-9.49,8.64l2.69.35c-1.56-4.24-3.35-8.14-7.59-10.25-2.69-1.34-6.87-2.46-9,.44-5.62,7.69,10.73,19,14.75,22.68,1.41,1.27,3.49-.81,2.09-2.08Z"/><path class="cls-1" d="M293.11,130.9a2.17,2.17,0,0,1-2.12-1.75,1.55,1.55,0,0,1,.1-.8l-.93-.77c-6.12-5-17.52-14.37-12.44-21.33,2.67-3.65,8-1.37,9.61-.59a14,14,0,0,1,6.3,6.81,14.83,14.83,0,0,1,7.72-5.58c3.74-1.22,6.17-.64,7.22,1.74,1.37,3.11-1.11,7.61-1.91,8.91-3.53,5.8-9.77,11-12.29,12.92A2.06,2.06,0,0,1,293.11,130.9ZM292,129.09a1.16,1.16,0,0,0,.7.74,1.21,1.21,0,0,0,.34.08,1.87,1.87,0,0,1-.48-.33Zm.5-.86.72.63a1,1,0,0,0,.95.22,1.18,1.18,0,0,0,.77-.81.79.79,0,0,0-.29-.77h0L294,127C293.45,127.46,292.92,127.88,292.48,128.23Zm2.32-1.9c.16.15.32.3.49.44h0a1.88,1.88,0,0,1,.62,1.18c2.94-2.48,7.24-6.52,9.91-10.92,1.51-2.47,2.78-5.88,1.85-8-.82-1.85-2.78-2.25-6-1.19a13.91,13.91,0,0,0-7.55,5.66c.32.74.62,1.49.9,2.24a13.18,13.18,0,0,1,6-5.53q2.93-1.22,4.07,0c.83.89.68,2.55-.41,4.69C302.45,119.3,298,123.6,294.8,126.33ZM282,105.22a4.08,4.08,0,0,0-3.49,1.61c-4.54,6.21,6.39,15.17,12.26,20l.93.76c.44-.34,1-.76,1.58-1.26l-2.2-1.86c-3.42-2.86-7-5.82-9.3-9.44l-.3-.44c-.83-1.22-1.57-2.38-1.47-3.19a4,4,0,0,1,2-3.15,4.16,4.16,0,0,1,3.81,0c3.16,1.55,4.7,4.26,5.91,7.26.4-.74.81-1.42,1.23-2.06a13.35,13.35,0,0,0-6.09-6.86A11.94,11.94,0,0,0,282,105.22Zm1.93,3.52A2.92,2.92,0,0,0,281,111.5c-.06.51.9,1.92,1.31,2.52.13.18.23.34.32.47,2.26,3.49,5.73,6.4,9.09,9.21.81.68,1.59,1.33,2.34,2,3.15-2.67,7.57-6.91,9.77-11.23.85-1.67,1.06-3,.56-3.58s-1.5-.37-3,.24c-2.4,1-4.22,2.76-6,5.81v0h0c-.14.25-.29.51-.43.78a1.78,1.78,0,0,1-1.73,1,2.17,2.17,0,0,1-1.86-1.38c-1.24-3.4-2.64-6.58-6-8.22A3.37,3.37,0,0,0,283.94,108.74Zm8.22,7.78.16.45a1.2,1.2,0,0,0,1,.74.81.81,0,0,0,.79-.45c.08-.15.16-.3.25-.45Zm.63-.91,1.17.15c-.16-.43-.33-.86-.51-1.28C293.22,114.84,293,115.22,292.79,115.61Z"/><path class="cls-2" d="M237,507.24c-.39,4.77-3.23,9.15-7.74,12.5a29.72,29.72,0,0,1-17.78,5.42c-6.83,0-13.66-1.94-18.43-5.42-5-3.61-7.87-8.5-7.87-13.79V447.57h3.87v59.54c.39,3.61,2.58,7,6.19,9.54a27.43,27.43,0,0,0,15.85,4.64,26.45,26.45,0,0,0,15.72-4.77c4-2.84,6.19-6.57,6.19-10.57V447.57h3.87v59.28Z"/><path class="cls-2" d="M268.08,506.21h4c0,11.21,10.06,16.24,19.34,16.24a22.74,22.74,0,0,0,13.4-4.12,14.67,14.67,0,0,0,5.93-12.12c0-15.08-9.67-17.53-20.88-20.24-10.18-2.57-21.78-5.41-21.78-20.75,0-13.53,12-20.62,23.84-20.62a25.42,25.42,0,0,1,15.47,4.77,17.91,17.91,0,0,1,7.21,14.82h-4a14.17,14.17,0,0,0-5.67-11.6,21.47,21.47,0,0,0-13-4c-9.79,0-19.85,5.67-19.85,16.62,0,12.12,8.25,14.18,18.69,16.76,11.21,2.83,24,5.93,24,24.23a18.57,18.57,0,0,1-7.47,15.34,26.07,26.07,0,0,1-15.85,4.89C279.81,526.44,268.08,519.48,268.08,506.21Z"/><path class="cls-2" d="M388.84,486.49H363.19l-14.3,38.15H345l29.26-77.33h3.48L407,524.64h-3.74ZM387.55,483l-11.47-30.42L364.48,483Z"/><path class="cls-2" d="M27.68,480.52a2,2,0,0,1,0-3.9L152,476a2,2,0,1,1,0,3.9l-124.33.65Z"/><path class="cls-2" d="M436.47,480.52a2,2,0,1,1,0-3.9L560.79,476a1.92,1.92,0,0,1,2,1.94,2,2,0,0,1-1.94,2l-124.33.65Z"/><path class="cls-2" d="M299.22,222.45c-9.67-1-16.79,6.15-15.76,15.82a2,2,0,0,0,3.42,1.42,82.07,82.07,0,0,1,9.88-6.8l-2.43-3.15c-4.86,4.84-11.64,10.77-12.07,18.17-.46,7.88,5.73,13.78,11.14,18.54a2,2,0,0,0,3.15-2.43c-4.69-8.41,4.92-15.75,7.44-23,1.85-5.31,1-10.31-1.59-15.21-1.2-2.29-4.67-.26-3.47,2,7.57,14.45-13.69,24.09-5.85,38.17l3.15-2.43c-5.4-4.75-12.27-10.91-9-18.87,1.93-4.69,6.4-8.64,9.94-12.16a2,2,0,0,0-2.43-3.15,89.48,89.48,0,0,0-10.7,7.42l3.43,1.42c-.81-7.62,4.13-12.59,11.75-11.8,2.57.26,2.55-3.75,0-4Z"/></svg>