<svg id="Capa_1" data-name="Capa 1" xmlns="http://www.w3.org/2000/svg" viewBox="0 0 100 100"><defs><style>.cls-1{fill:#fff;}</style></defs><title>Pag</title><path class="cls-1" d="M83.42,22H16.58A10.42,10.42,0,0,0,6.16,32.38v42A10.43,10.43,0,0,0,16.58,84.82H83.42A10.43,10.43,0,0,0,93.84,74.4v-42A10.42,10.42,0,0,0,83.42,22ZM16.58,29.65H83.42A2.7,2.7,0,0,1,86.07,32C79.43,35.3,59.66,45.21,54.18,47.6c-4.37,1.91-6.66.48-6.68.48L14.31,31A2.69,2.69,0,0,1,16.58,29.65ZM83.42,77.14H16.58a2.74,2.74,0,0,1-2.74-2.74V39.35L43.18,54.43A12.45,12.45,0,0,0,50,56.28a18.13,18.13,0,0,0,7.29-1.64c5-2.16,20.46-9.89,28.91-14.12V74.4A2.74,2.74,0,0,1,83.42,77.14Z"/></svg>