<svg id="Capa_1" data-name="Capa 1" xmlns="http://www.w3.org/2000/svg" viewBox="0 0 100 100"><defs><style>.cls-1{fill:#cc0083;}</style></defs><title>Pag</title><path class="cls-1" d="M69.42,8.73H30.58A20.06,20.06,0,0,0,10.52,28.8V68.39A20.07,20.07,0,0,0,30.58,88.46H69.42A20.07,20.07,0,0,0,89.48,68.39V28.8A20.06,20.06,0,0,0,69.42,8.73ZM80.6,68.35A11.14,11.14,0,0,1,69.46,79.49H30.54A11.14,11.14,0,0,1,19.4,68.35V28.84A11.14,11.14,0,0,1,30.54,17.7H69.46A11.14,11.14,0,0,1,80.6,28.84Z"/><path class="cls-1" d="M50,28.11A20.49,20.49,0,1,0,70.48,48.59,20.48,20.48,0,0,0,50,28.11Zm0,32.06A11.58,11.58,0,1,1,61.57,48.59,11.57,11.57,0,0,1,50,60.17Z"/><circle class="cls-1" cx="71.29" cy="27.48" r="5.2"/></svg>