<svg id="Capa_1" data-name="Capa 1" xmlns="http://www.w3.org/2000/svg" viewBox="0 0 100 100"><defs><style>.cls-1{fill:#fff;}</style></defs><title>Pag</title><path class="cls-1" d="M48.28,13.2A35.17,35.17,0,0,0,18.67,64.27L14.94,82.39A1.37,1.37,0,0,0,16.6,84l17.75-4.2A35.15,35.15,0,1,0,48.28,13.2ZM69.46,67.77A27.54,27.54,0,0,1,37.75,73l-2.47-1.23L24.39,74.31l2.3-11.12L25.47,60.8a27.54,27.54,0,0,1,5.07-31.95A27.52,27.52,0,0,1,69.46,67.77Z"/><path class="cls-1" d="M67.06,55.93l-6.81-2a2.52,2.52,0,0,0-2.51.66l-1.67,1.69a2.45,2.45,0,0,1-2.69.57c-3.22-1.3-10-7.32-11.73-10.34a2.47,2.47,0,0,1,.2-2.75l1.45-1.88a2.53,2.53,0,0,0,.31-2.58l-2.86-6.48a2.54,2.54,0,0,0-4-.9c-1.9,1.6-4.15,4.05-4.42,6.75-.49,4.77,1.56,10.79,9.29,18,8.94,8.34,16.1,9.44,20.76,8.31,2.64-.64,4.76-3.2,6.09-5.31A2.54,2.54,0,0,0,67.06,55.93Z"/></svg>